<svg width="16" height="16" viewBox="0 0 16 16" fill="none" xmlns="http://www.w3.org/2000/svg">
<path d="M10.8373 10.892C10.8118 10.9115 10.787 10.9332 10.763 10.9572C10.739 10.9812 10.718 11.0052 10.6978 11.0315C10.2275 11.4845 9.67402 11.8498 9.06277 12.1033C8.44627 12.3583 7.76902 12.5 7.05652 12.5C6.34402 12.5 5.66677 12.3582 5.04877 12.1025C4.40677 11.837 3.82852 11.447 3.34402 10.9618C2.85952 10.4765 2.46952 9.899 2.20327 9.257C1.94827 8.63975 1.80652 7.9625 1.80652 7.25C1.80652 6.5375 1.94827 5.86025 2.20402 5.24225C2.46952 4.601 2.85952 4.022 3.34402 3.5375C3.82852 3.053 4.40752 2.663 5.04877 2.3975C5.66677 2.14175 6.34402 2 7.05652 2C7.76902 2 8.44627 2.14175 9.06427 2.3975C9.70627 2.663 10.2845 3.053 10.769 3.53825C11.2535 4.0235 11.6435 4.601 11.9098 5.243C12.1648 5.86025 12.3065 6.5375 12.3065 7.25C12.3065 7.9625 12.1648 8.63975 11.909 9.25775C11.6555 9.869 11.2903 10.4225 10.8373 10.8927V10.892ZM15.0868 14.2197L12.3305 11.4635C12.7243 10.9715 13.0505 10.4233 13.295 9.8315C13.625 9.035 13.8065 8.16275 13.8065 7.25C13.8065 6.33725 13.625 5.465 13.295 4.6685C12.953 3.842 12.4513 3.09875 11.8295 2.477C11.2078 1.85525 10.4645 1.3535 9.63802 1.0115C8.84152 0.6815 7.96927 0.5 7.05652 0.5C6.14377 0.5 5.27152 0.6815 4.47502 1.0115C3.64852 1.3535 2.90527 1.85525 2.28352 2.477C1.66177 3.09875 1.16002 3.842 0.818018 4.6685C0.488018 5.465 0.306519 6.33725 0.306519 7.25C0.306519 8.16275 0.488018 9.035 0.818018 9.8315C1.16002 10.658 1.66177 11.4012 2.28352 12.023C2.90527 12.6448 3.64852 13.1465 4.47502 13.4885C5.27152 13.8185 6.14377 14 7.05652 14C7.96927 14 8.84152 13.8185 9.63802 13.4885C10.229 13.2433 10.778 12.917 11.27 12.524L14.0263 15.2803C14.3195 15.5735 14.7943 15.5735 15.0868 15.2803C15.3793 14.987 15.38 14.5122 15.0868 14.2197Z" fill="white"/>
</svg>
